<?xml version="1.0" encoding="UTF-8"?>
<svg xmlns="http://www.w3.org/2000/svg" version="1.1" xmlns:xlink="http://www.w3.org/1999/xlink" viewBox="0 0 1920 1080">
  <defs>
    <style>
      .cls-1 {
        fill: #1b1c1f;
      }

      .cls-1, .cls-2, .cls-3 {
        stroke-miterlimit: 10;
      }

      .cls-1, .cls-3 {
        stroke: #000;
      }

      .cls-2, .cls-4 {
        stroke: #4d4d4d;
      }

      .cls-2, .cls-4, .cls-5 {
        fill: none;
        stroke-linecap: round;
        stroke-width: 2px;
      }

      .cls-6 {
        fill: #4d4d4d;
      }

      .cls-7 {
        fill: #fff;
      }

      .cls-8 {
        fill: #f2f2f2;
      }

      .cls-9 {
        isolation: isolate;
      }

      .cls-4, .cls-5 {
        stroke-linejoin: round;
      }

      .cls-3, .cls-10 {
        fill: #b3b3b3;
      }

      .cls-11 {
        fill: #ed1c24;
      }

      .cls-5 {
        stroke: #f2f2f2;
      }

      .cls-12 {
        fill: #e6e6e6;
      }
    </style>
  </defs>
  <!-- Generator: Adobe Illustrator 28.6.0, SVG Export Plug-In . SVG Version: 1.2.0 Build 709)  -->
  <g>
    <g id="Layer_1">
      <g id="Layer_1-2" data-name="Layer_1">
        <rect class="cls-6" width="1920" height="1080"/>
        <rect class="cls-8" width="1920" height="27.5"/>
        <rect class="cls-11" x="1891.3" width="28.7" height="27.5"/>
        <rect class="cls-10" x="1862.6" width="28.7" height="27.5"/>
        <rect class="cls-12" x="1834" width="28.7" height="27.5"/>
        <line class="cls-2" x1="1840.8" y1="13.7" x2="1855.9" y2="13.7"/>
        <rect class="cls-4" x="1869.4" y="7.9" width="15.1" height="10.3"/>
        <line class="cls-5" x1="1898.4" y1="5.2" x2="1915.2" y2="21.3"/>
        <line class="cls-5" x1="1915.2" y1="5.2" x2="1898.4" y2="21.3"/>
        <g>
          <path d="M22.7,9.2h2.3c2.2,0,3.5.7,3.5,2.5s-1.2,2.6-3.4,2.6h-1.9v4.1h-.5v-9.2h0ZM24.9,13.9c2.1,0,3.1-.6,3.1-2.2s-1-2.1-3.1-2.1h-1.7v4.4h1.7Z"/>
          <path d="M29.6,15.1c0-2.2,1.4-3.5,3.1-3.5s1.4.3,2.2.8v-1.3s0-2.8,0-2.8h.4v10.1h-.4v-.9h0c-.6.6-1.4,1.1-2.3,1.1-1.8,0-2.9-1.2-2.9-3.5h0ZM34.9,17v-4.1c-.8-.7-1.4-.9-2.2-.9-1.5,0-2.6,1.4-2.6,3.1s.9,3.1,2.5,3.1,1.5-.4,2.3-1.2Z"/>
          <path d="M37.2,11.8h1c0,0,2.1,0,2.1,0v.4h-3.1v-.3h0ZM38.2,10.1c0-1.3.6-1.9,1.6-1.9s.6,0,1,.2v.4c-.4-.1-.7-.2-1-.2-.8,0-1.1.6-1.1,1.6v8.3h-.4v-8.4h0Z"/>
          <path d="M40.9,17.6l.3-.3c.6.5,1.2.9,2.3.9s1.8-.7,1.8-1.4-.9-1.3-1.8-1.6c-1.1-.4-2.3-.8-2.3-1.9s.8-1.7,2.2-1.7,1.4.3,1.9.7l-.3.3c-.5-.3-1-.6-1.7-.6-1.2,0-1.7.7-1.7,1.3s.8,1.1,1.7,1.4c1.1.4,2.3.7,2.3,2s-.8,1.9-2.3,1.9-1.9-.4-2.5-.9h0Z"/>
          <path d="M47.7,9.2h2.7c1.9,0,3.1.7,3.1,2.4s-1.2,2.5-3.1,2.5h-2.2v4.4h-.5v-9.2h0ZM50.2,13.6c1.8,0,2.8-.7,2.8-2.1s-1-2-2.8-2h-2v4.1s2,0,2,0ZM50.2,13.9h.5s2.8,4.5,2.8,4.5h-.6s-2.8-4.5-2.8-4.5Z"/>
          <path d="M54.7,15.1c0-2.2,1.4-3.5,3.1-3.5s3.1,1.3,3.1,3.5-1.4,3.5-3.1,3.5-3.1-1.3-3.1-3.5ZM60.4,15.1c0-1.9-1.1-3.1-2.6-3.1s-2.6,1.3-2.6,3.1,1.1,3.1,2.6,3.1,2.6-1.3,2.6-3.1Z"/>
          <path d="M62.5,15.1c0-2.2,1.5-3.5,3.1-3.5s1.6.4,2,.8l-.3.3c-.5-.4-1-.8-1.8-.8-1.5,0-2.7,1.3-2.7,3.1s1.1,3.1,2.7,3.1,1.5-.4,2-.8l.3.3c-.6.5-1.3.9-2.2.9-1.8,0-3.1-1.3-3.1-3.5h0Z"/>
          <path d="M69.6,8.3h.4v7.7h0l3.6-4.3h.5l-2.3,2.6,2.7,4.1h-.5l-2.4-3.7-1.7,1.9v1.9h-.4v-10.1h0Z"/>
          <path d="M75.5,15.1c0-2.2,1.5-3.5,3-3.5s2.6,1.1,2.6,3.1,0,.3,0,.4h-5.2c0,1.8,1.1,3.1,2.7,3.1s1.4-.2,1.9-.6l.2.4c-.5.3-1.1.6-2.2.6-1.8,0-3.2-1.3-3.2-3.5h0ZM80.7,14.7c0-1.9-.9-2.8-2.2-2.8s-2.4,1-2.5,2.8h4.7Z"/>
          <path d="M83.1,16.6v-4.5h-1.1v-.3h1.1c0,0,0-2,0-2h.4v2h2.1v.4h-2.1v4.6c0,.9.2,1.5,1.2,1.5s.6-.1.9-.2v.4c-.3.1-.7.2-.9.2-1.3,0-1.6-.8-1.6-1.9h0Z"/>
        </g>
        <image class="cls-9" width="1814" height="1240" transform="translate(0 28.5) scale(.8 .8)" xlink:href="early ui mockup-1.png"/>
        <rect class="cls-1" x="1450.9" y="27.5" width="469.1" height="1052.5"/>
        <rect class="cls-1" x="1450.9" y="447.1" width="469.1" height="634.9"/>
        <g>
          <path class="cls-7" d="M1506.7,465.3h3.5c3.3,0,5.2,1,5.2,3.8s-1.8,4-5.1,4h-2.9v6.1h-.7v-13.9h0ZM1510,472.5c3.1,0,4.6-1,4.6-3.4s-1.5-3.2-4.7-3.2h-2.5v6.5h2.6,0Z"/>
          <path class="cls-7" d="M1518.5,469.2h.6v1.9h.1c.7-1.2,1.7-2.1,3-2.1s.7,0,1,.2l-.2.6c-.4-.1-.5-.2-.9-.2-1,0-2.1.7-2.9,2.7v7h-.7v-10h0Z"/>
          <path class="cls-7" d="M1524,474.2c0-3.4,2.2-5.3,4.6-5.3s4.6,1.9,4.6,5.3-2.2,5.2-4.6,5.2-4.6-1.9-4.6-5.2ZM1532.6,474.2c0-2.8-1.7-4.7-3.9-4.7s-3.9,1.9-3.9,4.7,1.7,4.7,3.9,4.7,3.9-1.9,3.9-4.7Z"/>
          <path class="cls-7" d="M1536.6,469.2h.6v1.3h.1c1.1-.8,2.3-1.5,3.6-1.5,2.9,0,4.2,2,4.2,5.1s-2.2,5.4-4.6,5.4-2.1-.5-3.2-1.3v5.7h-.7v-14.7h0ZM1544.5,474c0-2.6-1-4.5-3.6-4.5s-2.3.6-3.6,1.8v6.2c1.3,1,2.5,1.4,3.3,1.4,2.3,0,3.9-2,3.9-4.8h0Z"/>
          <path class="cls-7" d="M1547.6,474.2c0-3.3,2.2-5.3,4.5-5.3s3.9,1.6,3.9,4.6,0,.4,0,.7h-7.7c0,2.7,1.6,4.7,4.1,4.7s2.1-.4,2.9-.9l.3.5c-.8.5-1.7,1-3.2,1-2.6,0-4.8-2-4.8-5.2h0ZM1555.4,473.6c0-2.8-1.3-4.1-3.3-4.1s-3.6,1.5-3.8,4.1h7.1Z"/>
          <path class="cls-7" d="M1559,469.2h.6v1.9h.1c.7-1.2,1.7-2.1,3-2.1s.7,0,1,.2l-.2.6c-.4-.1-.5-.2-.9-.2-1,0-2.1.7-2.9,2.7v7h-.7v-10h0Z"/>
          <path class="cls-7" d="M1565.9,476.5v-6.8h-1.7v-.5h1.7c0,0,0-3,0-3h.6v2.9h3.1v.6h-3.1v6.9c0,1.3.3,2.2,1.8,2.2s1-.2,1.4-.3l.2.5c-.6.2-1.3.4-1.6.4-1.9,0-2.5-1.2-2.5-2.9h0Z"/>
          <path class="cls-7" d="M1571.9,465.9c0-.5.4-.7.7-.7s.7.2.7.7-.4.7-.7.7-.7-.3-.7-.7ZM1572.3,469.2h.7v10h-.7v-10Z"/>
          <path class="cls-7" d="M1576.3,474.2c0-3.3,2.2-5.3,4.5-5.3s3.9,1.6,3.9,4.6,0,.4,0,.7h-7.7c0,2.7,1.6,4.7,4.1,4.7s2.1-.4,2.9-.9l.3.5c-.8.5-1.7,1-3.2,1-2.6,0-4.8-2-4.8-5.2h0ZM1584.1,473.6c0-2.8-1.3-4.1-3.3-4.1s-3.6,1.5-3.8,4.1h7.1Z"/>
          <path class="cls-7" d="M1586.3,478.1l.4-.5c.9.7,1.8,1.3,3.4,1.3s2.7-1,2.7-2.1-1.4-1.9-2.6-2.4c-1.6-.5-3.4-1.1-3.4-2.9s1.1-2.6,3.3-2.6,2.2.4,2.9,1l-.4.5c-.7-.5-1.5-.9-2.5-.9-1.8,0-2.5,1-2.5,2s1.3,1.7,2.5,2.1c1.7.6,3.5,1.1,3.5,3.1s-1.2,2.8-3.4,2.8-2.9-.6-3.8-1.4h0Z"/>
        </g>
        <g>
          <path class="cls-7" d="M1549.9,510.2v-5.8h-1.4v-.4h1.4c0,0,0-2.6,0-2.6h.5v2.5h2.7v.5h-2.7v5.9c0,1.1.3,1.9,1.6,1.9s.8-.1,1.2-.3l.2.5c-.5.2-1.1.3-1.4.3-1.7,0-2.1-1-2.1-2.5h0Z"/>
          <path class="cls-7" d="M1555.4,499.5h.6v5.8c1-.9,1.9-1.6,3.2-1.6,1.8,0,2.7,1,2.7,3.3v5.5h-.6v-5.5c0-1.9-.6-2.8-2.2-2.8s-2,.6-3.1,1.7v6.6h-.6v-13h0Z"/>
          <path class="cls-7" d="M1564.9,501.1c0-.4.3-.6.6-.6s.6.2.6.6-.3.6-.6.6-.6-.2-.6-.6ZM1565.2,503.9h.6v8.6h-.6v-8.6h0Z"/>
          <path class="cls-7" d="M1569.4,503.9h.5v1.4h.1c.9-.9,1.9-1.6,3.1-1.6,1.8,0,2.7,1,2.7,3.3v5.6h-.6v-5.5c0-1.9-.6-2.8-2.2-2.8s-2,.6-3.1,1.7v6.6h-.6v-8.6h0Z"/>
          <path class="cls-7" d="M1578.5,514.3c0-.8.5-1.5,1.4-2.1h0c-.4-.3-.8-.8-.8-1.4s.6-1.3,1-1.6h0c-.6-.5-1.1-1.4-1.1-2.5,0-1.7,1.4-3,3.1-3s.9.1,1.2.2h3v.5h-2.2c.6.5,1.1,1.3,1.1,2.3,0,1.7-1.4,3.1-3.1,3.1s-1.1-.1-1.5-.4c-.4.3-.8.7-.8,1.3s.4,1.2,1.8,1.2h2c2,0,2.9.6,2.9,1.9s-1.6,2.9-4.1,2.9-3.7-1-3.7-2.4h0ZM1585.7,513.9c0-1-.8-1.4-2.2-1.4h-2.1c-.1,0-.6,0-1.1-.1-.9.6-1.3,1.3-1.3,1.9,0,1.2,1.1,1.9,3.1,1.9s3.5-1.2,3.5-2.3h0ZM1584.5,506.7c0-1.5-1.1-2.5-2.5-2.5s-2.5,1-2.5,2.5,1.2,2.6,2.5,2.6,2.5-1,2.5-2.6Z"/>
          <path class="cls-7" d="M1587.4,516.3v-.5c.3,0,.6.1.9.1,1.1,0,1.9-1,2.4-2.5l.3-.8-3.7-8.8h.6l2.3,5.6c.3.7.7,1.7,1,2.4h0c.3-.8.6-1.7.9-2.4l2-5.6h.6l-3.6,9.8c-.4,1.3-1.4,2.8-2.9,2.8s-.6,0-.9-.2h0Z"/>
          <path class="cls-7" d="M1596.8,503.9h.5v1.4h.1c.8-.9,1.9-1.6,2.9-1.6,1.5,0,2.2.7,2.5,1.8,1.1-1.1,2.1-1.8,3.1-1.8,1.8,0,2.7,1,2.7,3.3v5.6h-.6v-5.5c0-1.9-.7-2.8-2.1-2.8s-1.8.6-2.9,1.7v6.6h-.6v-5.5c0-1.9-.7-2.8-2.1-2.8s-1.8.6-2.9,1.7v6.6h-.6v-8.6h0Z"/>
          <path class="cls-7" d="M1611.2,510.4c0-1.9,1.8-2.8,5.9-3.3,0-1.4-.3-3-2.2-3s-2.4.6-2.9,1l-.3-.4c.6-.4,1.8-1.1,3.3-1.1,2.1,0,2.7,1.5,2.7,3.2v5.6h-.5v-1.1h-.1c-.9.7-2.1,1.4-3.3,1.4s-2.6-.7-2.6-2.3h0ZM1617.1,510.8v-3.1c-3.9.4-5.3,1.3-5.3,2.8s.9,1.8,2,1.8,2.1-.5,3.3-1.5h0Z"/>
          <path class="cls-7" d="M1621.7,511.7h0v.9h-.6v-13h.6v5.6c.9-.8,2-1.4,3.2-1.4,2.4,0,3.6,1.7,3.6,4.4s-1.8,4.6-4,4.6-1.9-.4-2.7-1.1h0ZM1627.8,508.1c0-2.2-.8-3.9-3.1-3.9s-2,.5-3.1,1.5v5.3c1.1.9,2.1,1.2,2.8,1.2,2,0,3.4-1.7,3.4-4.1h0Z"/>
          <path class="cls-7" d="M1630.4,508.2c0-2.9,1.8-4.5,4-4.5s4,1.7,4,4.5-1.8,4.5-4,4.5-4-1.7-4-4.5h0ZM1637.8,508.2c0-2.4-1.5-4-3.4-4s-3.4,1.7-3.4,4,1.5,4,3.4,4,3.4-1.6,3.4-4h0Z"/>
          <path class="cls-7" d="M1641.8,511.7h0v.9h-.6v-13h.6v5.6c.9-.8,2-1.4,3.2-1.4,2.4,0,3.6,1.7,3.6,4.4s-1.8,4.6-4,4.6-1.9-.4-2.7-1.1h0ZM1647.9,508.1c0-2.2-.8-3.9-3.1-3.9s-2,.5-3.1,1.5v5.3c1.1.9,2.1,1.2,2.8,1.2,2,0,3.4-1.7,3.4-4.1h0Z"/>
        </g>
        <g>
          <path class="cls-7" d="M1549.4,543.9v-5.8h-1.4v-.4h1.4c0,0,0-2.6,0-2.6h.5v2.5h2.7v.5h-2.7v5.9c0,1.1.3,1.9,1.6,1.9s.8-.1,1.2-.3l.2.5c-.5.2-1.1.3-1.4.3-1.7,0-2.1-1-2.1-2.5h0Z"/>
          <path class="cls-7" d="M1554.9,533.2h.6v5.8c1-.9,1.9-1.6,3.2-1.6,1.8,0,2.7,1,2.7,3.3v5.5h-.6v-5.5c0-1.9-.6-2.8-2.2-2.8s-2,.6-3.1,1.7v6.6h-.6v-13h0Z"/>
          <path class="cls-7" d="M1564.4,534.8c0-.4.3-.6.6-.6s.6.2.6.6-.3.6-.6.6-.6-.2-.6-.6ZM1564.7,537.6h.6v8.6h-.6v-8.6Z"/>
          <path class="cls-7" d="M1568.9,537.6h.5v1.4h.1c.9-.9,1.9-1.6,3.1-1.6,1.8,0,2.7,1,2.7,3.3v5.5h-.6v-5.5c0-1.9-.6-2.8-2.2-2.8s-2,.6-3.1,1.7v6.6h-.6v-8.6h0Z"/>
          <path class="cls-7" d="M1578,548c0-.8.5-1.5,1.4-2.1h0c-.4-.3-.8-.8-.8-1.4s.6-1.3,1-1.6h0c-.6-.5-1.1-1.4-1.1-2.5,0-1.7,1.4-3,3.1-3s.9.1,1.2.2h3v.5h-2.2c.6.5,1.1,1.3,1.1,2.3,0,1.7-1.4,3.1-3.1,3.1s-1.1-.1-1.5-.4c-.4.3-.8.7-.8,1.3s.4,1.2,1.8,1.2h2c2,0,2.9.6,2.9,1.9s-1.6,2.9-4.1,2.9-3.7-1-3.7-2.4h0ZM1585.2,547.6c0-1-.8-1.4-2.2-1.4h-2.1c-.1,0-.6,0-1.1-.1-.9.6-1.3,1.3-1.3,2,0,1.2,1.1,1.9,3.1,1.9s3.5-1.2,3.5-2.3h0ZM1584,540.4c0-1.5-1.1-2.5-2.5-2.5s-2.5,1-2.5,2.5,1.2,2.6,2.5,2.6,2.5-1,2.5-2.6Z"/>
          <path class="cls-7" d="M1586.8,550v-.5c.3,0,.6.1.9.1,1.1,0,1.9-1,2.4-2.5l.3-.8-3.7-8.8h.6l2.3,5.7c.3.7.7,1.7,1,2.4h0c.3-.8.6-1.7.9-2.4l2-5.7h.6l-3.6,9.8c-.4,1.3-1.4,2.8-2.9,2.8s-.6,0-.9-.2h0Z"/>
          <path class="cls-7" d="M1596.2,537.6h.5v1.4h.1c.8-.9,1.9-1.6,2.9-1.6,1.5,0,2.2.7,2.5,1.8,1.1-1.1,2.1-1.8,3.1-1.8,1.8,0,2.7,1,2.7,3.3v5.5h-.6v-5.5c0-1.9-.7-2.8-2.1-2.8s-1.8.6-2.9,1.7v6.6h-.6v-5.5c0-1.9-.7-2.8-2.1-2.8s-1.8.6-2.9,1.7v6.6h-.6v-8.6h0Z"/>
          <path class="cls-7" d="M1610.7,544.1c0-1.9,1.8-2.8,5.9-3.3,0-1.4-.3-3-2.2-3s-2.4.6-2.9,1l-.3-.4c.6-.4,1.8-1.1,3.3-1.1,2.1,0,2.7,1.5,2.7,3.2v5.6h-.5v-1.2h-.1c-.9.7-2.1,1.4-3.3,1.4s-2.6-.7-2.6-2.3h0ZM1616.6,544.4v-3.1c-3.9.4-5.3,1.3-5.3,2.8s.9,1.8,2,1.8,2.1-.5,3.3-1.5h0Z"/>
          <path class="cls-7" d="M1621.1,545.3h0v.9h-.6v-13h.6v5.6c.9-.8,2-1.4,3.2-1.4,2.4,0,3.6,1.7,3.6,4.4s-1.8,4.7-4,4.7-1.9-.4-2.7-1.1h0ZM1627.2,541.8c0-2.2-.8-3.9-3.1-3.9s-2,.5-3.1,1.5v5.3c1.1.9,2.1,1.2,2.8,1.2,2,0,3.4-1.7,3.4-4.1h0Z"/>
          <path class="cls-7" d="M1629.8,541.9c0-2.9,1.8-4.5,4-4.5s4,1.7,4,4.5-1.8,4.5-4,4.5-4-1.7-4-4.5ZM1637.2,541.9c0-2.4-1.5-4-3.4-4s-3.4,1.7-3.4,4,1.5,4,3.4,4,3.4-1.6,3.4-4Z"/>
          <path class="cls-7" d="M1641.2,545.3h0v.9h-.6v-13h.6v5.6c.9-.8,2-1.4,3.2-1.4,2.4,0,3.6,1.7,3.6,4.4s-1.8,4.7-4,4.7-1.9-.4-2.7-1.1h0ZM1647.4,541.8c0-2.2-.8-3.9-3.1-3.9s-2,.5-3.1,1.5v5.3c1.1.9,2.1,1.2,2.8,1.2,2,0,3.4-1.7,3.4-4.1h0Z"/>
        </g>
        <g>
          <path class="cls-7" d="M1550.2,571.6v-5.8h-1.4v-.4h1.4c0,0,0-2.6,0-2.6h.5v2.5h2.7v.5h-2.7v5.9c0,1.1.3,1.9,1.6,1.9s.8-.1,1.2-.3l.2.5c-.5.2-1.1.3-1.4.3-1.7,0-2.1-1-2.1-2.5h0Z"/>
          <path class="cls-7" d="M1555.7,560.8h.6v5.8c1-.9,1.9-1.6,3.2-1.6,1.8,0,2.7,1,2.7,3.3v5.5h-.6v-5.5c0-1.9-.6-2.8-2.2-2.8s-2,.6-3.1,1.7v6.6h-.6v-13h0Z"/>
          <path class="cls-7" d="M1565.2,562.4c0-.4.3-.6.6-.6s.6.2.6.6-.3.6-.6.6-.6-.2-.6-.6ZM1565.5,565.2h.6v8.6h-.6v-8.6Z"/>
          <path class="cls-7" d="M1569.7,565.2h.5v1.4h.1c.9-.9,1.9-1.6,3.1-1.6,1.8,0,2.7,1,2.7,3.3v5.5h-.6v-5.5c0-1.9-.6-2.8-2.2-2.8s-2,.6-3.1,1.7v6.6h-.6v-8.6h0Z"/>
          <path class="cls-7" d="M1578.8,575.6c0-.8.5-1.5,1.4-2.1h0c-.4-.3-.8-.8-.8-1.4s.6-1.3,1-1.6h0c-.6-.5-1.1-1.4-1.1-2.5,0-1.7,1.4-3,3.1-3s.9.1,1.2.2h3v.5h-2.2c.6.5,1.1,1.3,1.1,2.3,0,1.7-1.4,3.1-3.1,3.1s-1.1-.1-1.5-.4c-.4.3-.8.7-.8,1.3s.4,1.2,1.8,1.2h2c2,0,2.9.6,2.9,2s-1.6,2.9-4.1,2.9-3.7-1-3.7-2.4h0ZM1586,575.2c0-1-.8-1.4-2.2-1.4h-2.1c-.1,0-.6,0-1.1-.1-.9.6-1.3,1.3-1.3,1.9,0,1.2,1.1,1.9,3.1,1.9s3.5-1.2,3.5-2.3h0ZM1584.8,568c0-1.5-1.1-2.5-2.5-2.5s-2.5,1-2.5,2.5,1.2,2.6,2.5,2.6,2.5-1,2.5-2.6Z"/>
          <path class="cls-7" d="M1587.6,577.7v-.5c.3,0,.6.1.9.1,1.1,0,1.9-1,2.4-2.5l.3-.8-3.7-8.8h.6l2.3,5.7c.3.7.7,1.7,1,2.4h0c.3-.8.6-1.7.9-2.4l2-5.7h.6l-3.6,9.8c-.4,1.3-1.4,2.8-2.9,2.8s-.6,0-.9-.2h0Z"/>
          <path class="cls-7" d="M1597.1,565.2h.5v1.4h.1c.8-.9,1.9-1.6,2.9-1.6,1.5,0,2.2.7,2.5,1.8,1.1-1.1,2.1-1.8,3.1-1.8,1.8,0,2.7,1,2.7,3.3v5.5h-.6v-5.5c0-1.9-.7-2.8-2.1-2.8s-1.8.6-2.9,1.7v6.6h-.6v-5.5c0-1.9-.7-2.8-2.1-2.8s-1.8.6-2.9,1.7v6.6h-.6v-8.6h0Z"/>
          <path class="cls-7" d="M1611.5,571.7c0-1.9,1.8-2.8,5.9-3.3,0-1.4-.3-3-2.2-3s-2.4.6-2.9,1l-.3-.4c.6-.4,1.8-1.1,3.3-1.1,2.1,0,2.7,1.5,2.7,3.2v5.6h-.5v-1.2h-.1c-.9.7-2.1,1.4-3.3,1.4s-2.6-.7-2.6-2.3h0ZM1617.4,572.1v-3.1c-3.9.4-5.3,1.3-5.3,2.8s.9,1.8,2,1.8,2.1-.5,3.3-1.5h0Z"/>
          <path class="cls-7" d="M1621.9,573h0v.9h-.6v-13h.6v5.6c.9-.8,2-1.4,3.2-1.4,2.4,0,3.6,1.7,3.6,4.4s-1.8,4.6-4,4.6-1.9-.4-2.7-1.1h0ZM1628.1,569.4c0-2.2-.8-3.9-3.1-3.9s-2,.5-3.1,1.5v5.3c1.1.9,2.1,1.2,2.8,1.2,2,0,3.4-1.7,3.4-4.1h0Z"/>
          <path class="cls-7" d="M1630.7,569.5c0-2.9,1.8-4.5,4-4.5s4,1.7,4,4.5-1.8,4.5-4,4.5-4-1.7-4-4.5ZM1638,569.5c0-2.4-1.5-4-3.4-4s-3.4,1.7-3.4,4,1.5,4,3.4,4,3.4-1.6,3.4-4Z"/>
          <path class="cls-7" d="M1642.1,573h0v.9h-.6v-13h.6v5.6c.9-.8,2-1.4,3.2-1.4,2.4,0,3.6,1.7,3.6,4.4s-1.8,4.6-4,4.6-1.9-.4-2.7-1.1h0ZM1648.2,569.4c0-2.2-.8-3.9-3.1-3.9s-2,.5-3.1,1.5v5.3c1.1.9,2.1,1.2,2.8,1.2,2,0,3.4-1.7,3.4-4.1h0Z"/>
        </g>
        <g>
          <path class="cls-7" d="M1549.7,605.2v-5.8h-1.4v-.4h1.4c0,0,0-2.6,0-2.6h.5v2.5h2.7v.5h-2.7v5.9c0,1.1.3,1.9,1.6,1.9s.8-.1,1.2-.3l.2.5c-.5.2-1.1.3-1.4.3-1.7,0-2.1-1-2.1-2.5h0Z"/>
          <path class="cls-7" d="M1555.2,594.5h.6v5.8c1-.9,1.9-1.6,3.2-1.6,1.8,0,2.7,1,2.7,3.3v5.5h-.6v-5.5c0-1.9-.6-2.8-2.2-2.8s-2,.6-3.1,1.7v6.6h-.6v-13h0Z"/>
          <path class="cls-7" d="M1564.6,596.1c0-.4.3-.6.6-.6s.6.2.6.6-.3.6-.6.6-.6-.2-.6-.6ZM1565,598.9h.6v8.6h-.6v-8.6Z"/>
          <path class="cls-7" d="M1569.2,598.9h.5v1.4h.1c.9-.9,1.9-1.6,3.1-1.6,1.8,0,2.7,1,2.7,3.3v5.5h-.6v-5.5c0-1.9-.6-2.8-2.2-2.8s-2,.6-3.1,1.7v6.6h-.6v-8.6h0Z"/>
          <path class="cls-7" d="M1578.3,609.3c0-.8.5-1.5,1.4-2.1h0c-.4-.3-.8-.8-.8-1.4s.6-1.3,1-1.6h0c-.6-.5-1.1-1.4-1.1-2.5,0-1.7,1.4-3,3.1-3s.9.1,1.2.2h3v.5h-2.2c.6.5,1.1,1.3,1.1,2.3,0,1.7-1.4,3.1-3.1,3.1s-1.1-.1-1.5-.4c-.4.3-.8.7-.8,1.3s.4,1.2,1.8,1.2h2c2,0,2.9.6,2.9,2s-1.6,2.9-4.1,2.9-3.7-1-3.7-2.4h0ZM1585.5,608.9c0-1-.8-1.4-2.2-1.4h-2.1c-.1,0-.6,0-1.1-.1-.9.6-1.3,1.3-1.3,1.9,0,1.2,1.1,1.9,3.1,1.9s3.5-1.2,3.5-2.3h0ZM1584.2,601.7c0-1.5-1.1-2.5-2.5-2.5s-2.5,1-2.5,2.5,1.2,2.6,2.5,2.6,2.5-1,2.5-2.6Z"/>
          <path class="cls-7" d="M1587.1,611.3v-.5c.3,0,.6.1.9.1,1.1,0,1.9-1,2.4-2.5l.3-.8-3.7-8.8h.6l2.3,5.7c.3.7.7,1.7,1,2.4h0c.3-.8.6-1.7.9-2.4l2-5.7h.6l-3.6,9.8c-.4,1.3-1.4,2.8-2.9,2.8s-.6,0-.9-.2h0Z"/>
          <path class="cls-7" d="M1596.5,598.9h.5v1.4h.1c.8-.9,1.9-1.6,2.9-1.6,1.5,0,2.2.7,2.5,1.8,1.1-1.1,2.1-1.8,3.1-1.8,1.8,0,2.7,1,2.7,3.3v5.5h-.6v-5.5c0-1.9-.7-2.8-2.1-2.8s-1.8.6-2.9,1.7v6.6h-.6v-5.5c0-1.9-.7-2.8-2.1-2.8s-1.8.6-2.9,1.7v6.6h-.6v-8.6h0Z"/>
          <path class="cls-7" d="M1611,605.4c0-1.9,1.8-2.8,5.9-3.3,0-1.4-.3-3-2.2-3s-2.4.6-2.9,1l-.3-.4c.6-.4,1.8-1.1,3.3-1.1,2.1,0,2.7,1.5,2.7,3.2v5.6h-.5v-1.2h-.1c-.9.7-2.1,1.4-3.3,1.4s-2.6-.7-2.6-2.3h0ZM1616.9,605.7v-3.1c-3.9.4-5.3,1.3-5.3,2.8s.9,1.8,2,1.8,2.1-.5,3.3-1.5h0Z"/>
          <path class="cls-7" d="M1621.4,606.6h0v.9h-.6v-13h.6v5.6c.9-.8,2-1.4,3.2-1.4,2.4,0,3.6,1.7,3.6,4.4s-1.8,4.6-4,4.6-1.9-.4-2.7-1.1h0ZM1627.5,603.1c0-2.2-.8-3.9-3.1-3.9s-2,.5-3.1,1.5v5.3c1.1.9,2.1,1.2,2.8,1.2,2,0,3.4-1.7,3.4-4.1h0Z"/>
          <path class="cls-7" d="M1630.1,603.2c0-2.9,1.8-4.5,4-4.5s4,1.7,4,4.5-1.8,4.5-4,4.5-4-1.7-4-4.5ZM1637.5,603.2c0-2.4-1.5-4-3.4-4s-3.4,1.7-3.4,4,1.5,4,3.4,4,3.4-1.6,3.4-4Z"/>
          <path class="cls-7" d="M1641.5,606.6h0v.9h-.6v-13h.6v5.6c.9-.8,2-1.4,3.2-1.4,2.4,0,3.6,1.7,3.6,4.4s-1.8,4.6-4,4.6-1.9-.4-2.7-1.1h0ZM1647.7,603.1c0-2.2-.8-3.9-3.1-3.9s-2,.5-3.1,1.5v5.3c1.1.9,2.1,1.2,2.8,1.2,2,0,3.4-1.7,3.4-4.1h0Z"/>
        </g>
        <g>
          <path class="cls-7" d="M1487,49.5h.7v13.3h6.8v.6h-7.5v-13.9Z"/>
          <path class="cls-7" d="M1496.2,60.9c0-2.2,2.2-3.3,6.9-3.8,0-1.6-.4-3.4-2.6-3.4s-2.8.7-3.4,1.2l-.4-.5c.7-.5,2.1-1.3,3.8-1.3,2.5,0,3.2,1.8,3.2,3.8v6.5h-.6v-1.3h-.1c-1.1.8-2.4,1.6-3.8,1.6s-3-.8-3-2.7h0ZM1503.1,61.3v-3.7c-4.6.5-6.2,1.5-6.2,3.2s1.1,2.1,2.4,2.1,2.4-.6,3.8-1.7Z"/>
          <path class="cls-7" d="M1506,67.8l.2-.6c.2,0,.6.2.9.2,1.3,0,2.2-1.2,2.8-2.9l.3-.9-4.3-10.3h.7l2.7,6.6c.4.8.8,1.9,1.2,2.8h0c.4-.9.7-2,1-2.8l2.4-6.6h.7l-4.2,11.5c-.5,1.6-1.6,3.2-3.4,3.2s-.7,0-1-.2h0Z"/>
          <path class="cls-7" d="M1516,58.4c0-3.3,2.2-5.3,4.5-5.3s3.9,1.6,3.9,4.6,0,.4,0,.7h-7.7c0,2.7,1.6,4.7,4.1,4.7s2.1-.4,2.9-.9l.3.5c-.8.5-1.7,1-3.2,1-2.6,0-4.8-2-4.8-5.2h0ZM1523.9,57.8c0-2.8-1.3-4.1-3.3-4.1s-3.6,1.5-3.8,4.1h7.1Z"/>
          <path class="cls-7" d="M1527.4,53.4h.6v1.9h.1c.7-1.2,1.7-2.1,3-2.1s.7,0,1,.2l-.2.6c-.4-.1-.5-.2-.9-.2-1,0-2.1.7-2.9,2.7v7h-.7v-10h0Z"/>
          <path class="cls-7" d="M1532.8,62.3l.4-.5c.9.7,1.8,1.3,3.4,1.3s2.7-1,2.7-2.1-1.4-1.9-2.6-2.3c-1.6-.5-3.4-1.1-3.4-2.9s1.1-2.6,3.3-2.6,2.2.4,2.9,1l-.4.5c-.7-.5-1.5-.9-2.5-.9-1.8,0-2.5,1-2.5,2s1.3,1.7,2.5,2.1c1.7.6,3.5,1.1,3.5,3.1s-1.2,2.8-3.4,2.8-2.9-.6-3.8-1.4h0Z"/>
        </g>
        <g>
          <path class="cls-7" d="M1530.3,94.5v-5.8h-1.4v-.4h1.4c0,0,0-2.6,0-2.6h.5v2.5h2.7v.5h-2.7v5.9c0,1.1.3,1.9,1.6,1.9s.8-.1,1.2-.3l.2.5c-.5.2-1.1.3-1.4.3-1.7,0-2.1-1-2.1-2.5h0Z"/>
          <path class="cls-7" d="M1535.7,83.7h.6v5.8c1-.9,1.9-1.6,3.2-1.6,1.8,0,2.7,1,2.7,3.3v5.6h-.6v-5.5c0-1.9-.6-2.8-2.2-2.8s-2,.6-3.1,1.7v6.6h-.6v-13h0Z"/>
          <path class="cls-7" d="M1545.2,85.3c0-.4.3-.6.6-.6s.6.2.6.6-.3.6-.6.6-.6-.2-.6-.6ZM1545.6,88.1h.6v8.6h-.6v-8.6Z"/>
          <path class="cls-7" d="M1549.7,88.1h.5v1.4h.1c.9-.9,1.9-1.6,3.1-1.6,1.8,0,2.7,1,2.7,3.3v5.6h-.6v-5.5c0-1.9-.6-2.8-2.2-2.8s-2,.6-3.1,1.7v6.6h-.6v-8.6h0Z"/>
          <path class="cls-7" d="M1558.8,98.5c0-.8.5-1.6,1.4-2.1h0c-.4-.3-.8-.8-.8-1.4s.6-1.3,1-1.6h0c-.6-.5-1.1-1.4-1.1-2.4,0-1.7,1.4-3,3.1-3s.9.1,1.2.2h3v.5h-2.2c.6.5,1.1,1.3,1.1,2.3,0,1.7-1.4,3.1-3.1,3.1s-1.1-.1-1.5-.4c-.4.3-.8.7-.8,1.3s.4,1.2,1.8,1.2h2c2,0,2.9.6,2.9,1.9s-1.6,2.9-4.1,2.9-3.7-1-3.7-2.4h0ZM1566.1,98.1c0-1-.8-1.4-2.2-1.4h-2.1c-.1,0-.6,0-1.1-.1-.9.6-1.3,1.3-1.3,1.9,0,1.2,1.1,1.9,3.1,1.9s3.5-1.2,3.5-2.3h0ZM1564.8,90.9c0-1.5-1.1-2.5-2.5-2.5s-2.5,1-2.5,2.5,1.2,2.6,2.5,2.6,2.5-1,2.5-2.6Z"/>
          <path class="cls-7" d="M1567.7,100.5v-.5c.3,0,.6.1.9.1,1.1,0,1.9-1,2.4-2.4l.3-.8-3.7-8.8h.6l2.3,5.7c.3.7.7,1.7,1,2.4h0c.3-.8.6-1.7.9-2.4l2-5.7h.6l-3.6,9.8c-.4,1.3-1.4,2.8-2.9,2.8s-.6,0-.9-.2h0Z"/>
          <path class="cls-7" d="M1577.1,88.1h.5v1.4h.1c.8-.9,1.9-1.6,2.9-1.6,1.5,0,2.2.7,2.5,1.8,1.1-1.1,2.1-1.8,3.1-1.8,1.8,0,2.7,1,2.7,3.3v5.6h-.6v-5.5c0-1.9-.7-2.8-2.1-2.8s-1.8.6-2.9,1.7v6.6h-.6v-5.5c0-1.9-.7-2.8-2.1-2.8s-1.8.6-2.9,1.7v6.6h-.6v-8.6h0Z"/>
          <path class="cls-7" d="M1591.6,94.6c0-1.9,1.8-2.8,5.9-3.3,0-1.4-.3-2.9-2.2-2.9s-2.4.6-2.9,1l-.3-.4c.6-.4,1.8-1.1,3.3-1.1,2.1,0,2.7,1.5,2.7,3.2v5.6h-.5v-1.2h-.1c-.9.7-2.1,1.4-3.3,1.4s-2.6-.7-2.6-2.3h0ZM1597.5,95v-3.1c-3.9.4-5.3,1.3-5.3,2.8s.9,1.8,2,1.8,2.1-.5,3.3-1.5h0Z"/>
          <path class="cls-7" d="M1602,95.9h0v.9h-.6v-13h.6v5.6c.9-.8,2-1.4,3.2-1.4,2.4,0,3.6,1.7,3.6,4.4s-1.8,4.7-4,4.7-1.9-.4-2.7-1.1h0ZM1608.1,92.3c0-2.2-.8-3.9-3.1-3.9s-2,.5-3.1,1.5v5.3c1.1.9,2.1,1.2,2.8,1.2,2,0,3.4-1.7,3.4-4.1h0Z"/>
          <path class="cls-7" d="M1610.7,92.4c0-2.9,1.8-4.5,4-4.5s4,1.7,4,4.5-1.8,4.5-4,4.5-4-1.7-4-4.5ZM1618.1,92.4c0-2.4-1.5-4-3.4-4s-3.4,1.7-3.4,4,1.5,4,3.4,4,3.4-1.6,3.4-4Z"/>
          <path class="cls-7" d="M1622.1,95.9h0v.9h-.6v-13h.6v5.6c.9-.8,2-1.4,3.2-1.4,2.4,0,3.6,1.7,3.6,4.4s-1.8,4.7-4,4.7-1.9-.4-2.7-1.1h0ZM1628.2,92.3c0-2.2-.8-3.9-3.1-3.9s-2,.5-3.1,1.5v5.3c1.1.9,2.1,1.2,2.8,1.2,2,0,3.4-1.7,3.4-4.1h0Z"/>
        </g>
        <g>
          <path class="cls-7" d="M1529.7,128.1v-5.8h-1.4v-.4h1.4c0,0,0-2.6,0-2.6h.5v2.5h2.7v.5h-2.7v5.9c0,1.1.3,1.9,1.6,1.9s.8-.1,1.2-.3l.2.5c-.5.2-1.1.3-1.4.3-1.7,0-2.1-1-2.1-2.5h0Z"/>
          <path class="cls-7" d="M1535.2,117.4h.6v5.8c1-.9,1.9-1.6,3.2-1.6,1.8,0,2.7,1,2.7,3.3v5.6h-.6v-5.5c0-1.9-.6-2.8-2.2-2.8s-2,.6-3.1,1.7v6.6h-.6v-13h0Z"/>
          <path class="cls-7" d="M1544.7,119c0-.4.3-.6.6-.6s.6.2.6.6-.3.6-.6.6-.6-.2-.6-.6ZM1545,121.8h.6v8.6h-.6s0-8.6,0-8.6Z"/>
          <path class="cls-7" d="M1549.2,121.8h.5v1.4h.1c.9-.9,1.9-1.6,3.1-1.6,1.8,0,2.7,1,2.7,3.3v5.6h-.6v-5.5c0-1.9-.6-2.8-2.2-2.8s-2,.6-3.1,1.7v6.6h-.6v-8.6h0Z"/>
          <path class="cls-7" d="M1558.3,132.2c0-.8.5-1.6,1.4-2.1h0c-.4-.3-.8-.8-.8-1.4s.6-1.3,1-1.6h0c-.6-.5-1.1-1.4-1.1-2.4,0-1.7,1.4-3,3.1-3s.9.1,1.2.2h3v.5h-2.2c.6.5,1.1,1.3,1.1,2.3,0,1.7-1.4,3.1-3.1,3.1s-1.1-.1-1.5-.4c-.4.3-.8.7-.8,1.3s.4,1.2,1.8,1.2h2c2,0,2.9.6,2.9,1.9s-1.6,2.9-4.1,2.9-3.7-1-3.7-2.4h0ZM1565.5,131.8c0-1-.8-1.4-2.2-1.4h-2.1c-.1,0-.6,0-1.1-.1-.9.6-1.3,1.3-1.3,1.9,0,1.1,1.1,1.9,3.1,1.9s3.5-1.2,3.5-2.3h0ZM1564.3,124.6c0-1.5-1.1-2.5-2.5-2.5s-2.5,1-2.5,2.5,1.2,2.6,2.5,2.6,2.5-1,2.5-2.6Z"/>
          <path class="cls-7" d="M1567.1,134.2v-.5c.3,0,.6.1.9.1,1.1,0,1.9-1,2.4-2.4l.3-.8-3.7-8.8h.6l2.3,5.7c.3.7.7,1.7,1,2.4h0c.3-.8.6-1.7.9-2.4l2-5.7h.6l-3.6,9.8c-.4,1.3-1.4,2.8-2.9,2.8s-.6,0-.9-.2h0Z"/>
          <path class="cls-7" d="M1576.5,121.8h.5v1.4h.1c.8-.9,1.9-1.6,2.9-1.6,1.5,0,2.2.7,2.5,1.8,1.1-1.1,2.1-1.8,3.1-1.8,1.8,0,2.7,1,2.7,3.3v5.6h-.6v-5.5c0-1.9-.7-2.8-2.1-2.8s-1.8.6-2.9,1.7v6.6h-.6v-5.5c0-1.9-.7-2.8-2.1-2.8s-1.8.6-2.9,1.7v6.6h-.6v-8.6h0Z"/>
          <path class="cls-7" d="M1591,128.3c0-1.9,1.8-2.8,5.9-3.3,0-1.4-.3-2.9-2.2-2.9s-2.4.6-2.9,1l-.3-.4c.6-.4,1.8-1.1,3.3-1.1,2.1,0,2.7,1.5,2.7,3.2v5.6h-.5v-1.1h-.1c-.9.7-2.1,1.4-3.3,1.4s-2.6-.7-2.6-2.3h0ZM1596.9,128.6v-3.1c-3.9.4-5.3,1.3-5.3,2.8s.9,1.8,2,1.8,2.1-.5,3.3-1.5h0Z"/>
          <path class="cls-7" d="M1601.4,129.5h0v.9h-.6v-13h.6v5.6c.9-.8,2-1.4,3.2-1.4,2.4,0,3.6,1.7,3.6,4.4s-1.8,4.7-4,4.7-1.9-.4-2.7-1.1h0ZM1607.6,126c0-2.2-.8-3.9-3.1-3.9s-2,.5-3.1,1.5v5.3c1.1.9,2.1,1.2,2.8,1.2,2,0,3.4-1.7,3.4-4.1h0Z"/>
          <path class="cls-7" d="M1610.2,126.1c0-2.9,1.8-4.5,4-4.5s4,1.7,4,4.5-1.8,4.5-4,4.5-4-1.7-4-4.5ZM1617.5,126.1c0-2.4-1.5-4-3.4-4s-3.4,1.7-3.4,4,1.5,4,3.4,4,3.4-1.6,3.4-4Z"/>
          <path class="cls-7" d="M1621.5,129.5h0v.9h-.6v-13h.6v5.6c.9-.8,2-1.4,3.2-1.4,2.4,0,3.6,1.7,3.6,4.4s-1.8,4.7-4,4.7-1.9-.4-2.7-1.1h0ZM1627.7,126c0-2.2-.8-3.9-3.1-3.9s-2,.5-3.1,1.5v5.3c1.1.9,2.1,1.2,2.8,1.2,2,0,3.4-1.7,3.4-4.1h0Z"/>
        </g>
        <g>
          <path class="cls-7" d="M1530.5,155.8v-5.8h-1.4v-.4h1.4c0,0,0-2.6,0-2.6h.5v2.5h2.7v.5h-2.7v5.9c0,1.1.3,1.9,1.6,1.9s.8-.1,1.2-.3l.2.5c-.5.2-1.1.3-1.4.3-1.7,0-2.1-1-2.1-2.5h0Z"/>
          <path class="cls-7" d="M1536,145h.6v5.8c1-.9,1.9-1.6,3.2-1.6,1.8,0,2.7,1,2.7,3.3v5.6h-.6v-5.5c0-1.9-.6-2.8-2.2-2.8s-2,.6-3.1,1.7v6.6h-.6v-13h0Z"/>
          <path class="cls-7" d="M1545.5,146.6c0-.4.3-.6.6-.6s.6.2.6.6-.3.6-.6.6-.6-.2-.6-.6ZM1545.9,149.4h.6v8.6h-.6v-8.6Z"/>
          <path class="cls-7" d="M1550,149.4h.5v1.4h.1c.9-.9,1.9-1.6,3.1-1.6,1.8,0,2.7,1,2.7,3.3v5.6h-.6v-5.5c0-1.9-.6-2.8-2.2-2.8s-2,.6-3.1,1.7v6.6h-.6v-8.6h0Z"/>
          <path class="cls-7" d="M1559.1,159.8c0-.8.5-1.6,1.4-2.1h0c-.4-.3-.8-.8-.8-1.4s.6-1.3,1-1.6h0c-.6-.5-1.1-1.4-1.1-2.5,0-1.7,1.4-3,3.1-3s.9.1,1.2.2h3v.5h-2.2c.6.5,1.1,1.3,1.1,2.3,0,1.7-1.4,3.1-3.1,3.1s-1.1-.1-1.5-.4c-.4.3-.8.7-.8,1.3s.4,1.2,1.8,1.2h2c2,0,2.9.6,2.9,1.9s-1.6,2.9-4.1,2.9-3.7-1-3.7-2.4h0ZM1566.3,159.4c0-1-.8-1.4-2.2-1.4h-2.1c-.1,0-.6,0-1.1-.1-.9.6-1.3,1.3-1.3,1.9,0,1.1,1.1,1.9,3.1,1.9s3.5-1.2,3.5-2.3h0ZM1565.1,152.2c0-1.5-1.1-2.5-2.5-2.5s-2.5,1-2.5,2.5,1.2,2.6,2.5,2.6,2.5-1,2.5-2.6Z"/>
          <path class="cls-7" d="M1568,161.9v-.5c.3,0,.6.1.9.1,1.1,0,1.9-1,2.4-2.4l.3-.8-3.7-8.8h.6l2.3,5.6c.3.7.7,1.7,1,2.4h0c.3-.8.6-1.7.9-2.4l2-5.6h.6l-3.6,9.8c-.4,1.3-1.4,2.8-2.9,2.8s-.6,0-.9-.2h0Z"/>
          <path class="cls-7" d="M1577.4,149.4h.5v1.4h.1c.8-.9,1.9-1.6,2.9-1.6,1.5,0,2.2.7,2.5,1.8,1.1-1.1,2.1-1.8,3.1-1.8,1.8,0,2.7,1,2.7,3.3v5.6h-.6v-5.5c0-1.9-.7-2.8-2.1-2.8s-1.8.6-2.9,1.7v6.6h-.6v-5.5c0-1.9-.7-2.8-2.1-2.8s-1.8.6-2.9,1.7v6.6h-.6v-8.6h0Z"/>
          <path class="cls-7" d="M1591.8,155.9c0-1.9,1.8-2.8,5.9-3.3,0-1.4-.3-2.9-2.2-2.9s-2.4.6-2.9,1l-.3-.4c.6-.4,1.8-1.1,3.3-1.1,2.1,0,2.7,1.5,2.7,3.2v5.6h-.5v-1.1h-.1c-.9.7-2.1,1.4-3.3,1.4s-2.6-.7-2.6-2.3h0ZM1597.8,156.3v-3.1c-3.9.4-5.3,1.3-5.3,2.8s.9,1.8,2,1.8,2.1-.5,3.3-1.5h0Z"/>
          <path class="cls-7" d="M1602.3,157.2h0v.9h-.6v-13h.6v5.6c.9-.8,2-1.4,3.2-1.4,2.4,0,3.6,1.7,3.6,4.4s-1.8,4.6-4,4.6-1.9-.4-2.7-1.1h0ZM1608.4,153.6c0-2.2-.8-3.9-3.1-3.9s-2,.5-3.1,1.5v5.3c1.1.9,2.1,1.2,2.8,1.2,2,0,3.4-1.7,3.4-4.1h0Z"/>
          <path class="cls-7" d="M1611,153.8c0-2.9,1.8-4.5,4-4.5s4,1.7,4,4.5-1.8,4.5-4,4.5-4-1.7-4-4.5ZM1618.4,153.8c0-2.4-1.5-4-3.4-4s-3.4,1.7-3.4,4,1.5,4,3.4,4,3.4-1.6,3.4-4Z"/>
          <path class="cls-7" d="M1622.4,157.2h0v.9h-.6v-13h.6v5.6c.9-.8,2-1.4,3.2-1.4,2.4,0,3.6,1.7,3.6,4.4s-1.8,4.6-4,4.6-1.9-.4-2.7-1.1h0ZM1628.5,153.6c0-2.2-.8-3.9-3.1-3.9s-2,.5-3.1,1.5v5.3c1.1.9,2.1,1.2,2.8,1.2,2,0,3.4-1.7,3.4-4.1h0Z"/>
        </g>
        <g>
          <path class="cls-7" d="M1530,189.4v-5.8h-1.4v-.4h1.4c0,0,0-2.6,0-2.6h.5v2.5h2.7v.5h-2.7v5.9c0,1.1.3,1.9,1.6,1.9s.8-.1,1.2-.3l.2.5c-.5.2-1.1.3-1.4.3-1.7,0-2.1-1-2.1-2.5h0Z"/>
          <path class="cls-7" d="M1535.5,178.7h.6v5.8c1-.9,1.9-1.6,3.2-1.6,1.8,0,2.7,1,2.7,3.3v5.6h-.6v-5.5c0-1.9-.6-2.8-2.2-2.8s-2,.6-3.1,1.7v6.6h-.6v-13h0Z"/>
          <path class="cls-7" d="M1545,180.3c0-.4.3-.6.6-.6s.6.2.6.6-.3.6-.6.6-.6-.2-.6-.6ZM1545.3,183.1h.6v8.6h-.6v-8.6Z"/>
          <path class="cls-7" d="M1549.5,183.1h.5v1.4h.1c.9-.9,1.9-1.6,3.1-1.6,1.8,0,2.7,1,2.7,3.3v5.6h-.6v-5.5c0-1.9-.6-2.8-2.2-2.8s-2,.6-3.1,1.7v6.6h-.6v-8.6h0Z"/>
          <path class="cls-7" d="M1558.6,193.5c0-.8.5-1.6,1.4-2.1h0c-.4-.3-.8-.8-.8-1.4s.6-1.3,1-1.6h0c-.6-.5-1.1-1.4-1.1-2.5,0-1.7,1.4-3,3.1-3s.9.1,1.2.2h3v.5h-2.2c.6.5,1.1,1.3,1.1,2.3,0,1.7-1.4,3.1-3.1,3.1s-1.1-.1-1.5-.4c-.4.3-.8.7-.8,1.3s.4,1.2,1.8,1.2h2c2,0,2.9.6,2.9,1.9s-1.6,2.9-4.1,2.9-3.7-1-3.7-2.4h0ZM1565.8,193.1c0-1-.8-1.4-2.2-1.4h-2.1c-.1,0-.6,0-1.1-.1-.9.6-1.3,1.3-1.3,1.9,0,1.1,1.1,1.9,3.1,1.9s3.5-1.2,3.5-2.3h0ZM1564.6,185.9c0-1.5-1.1-2.5-2.5-2.5s-2.5,1-2.5,2.5,1.2,2.6,2.5,2.6,2.5-1,2.5-2.6Z"/>
          <path class="cls-7" d="M1567.4,195.5v-.5c.3,0,.6.1.9.1,1.1,0,1.9-1,2.4-2.4l.3-.8-3.7-8.8h.6l2.3,5.6c.3.7.7,1.7,1,2.4h0c.3-.8.6-1.7.9-2.4l2-5.6h.6l-3.6,9.8c-.4,1.3-1.4,2.8-2.9,2.8s-.6,0-.9-.2h0Z"/>
          <path class="cls-7" d="M1576.8,183.1h.5v1.4h.1c.8-.9,1.9-1.6,2.9-1.6,1.5,0,2.2.7,2.5,1.8,1.1-1.1,2.1-1.8,3.1-1.8,1.8,0,2.7,1,2.7,3.3v5.6h-.6v-5.5c0-1.9-.7-2.8-2.1-2.8s-1.8.6-2.9,1.7v6.6h-.6v-5.5c0-1.9-.7-2.8-2.1-2.8s-1.8.6-2.9,1.7v6.6h-.6v-8.6h0Z"/>
          <path class="cls-7" d="M1591.3,189.6c0-1.9,1.8-2.8,5.9-3.3,0-1.4-.3-2.9-2.2-2.9s-2.4.6-2.9,1l-.3-.4c.6-.4,1.8-1.1,3.3-1.1,2.1,0,2.7,1.5,2.7,3.2v5.6h-.5v-1.1h-.1c-.9.7-2.1,1.4-3.3,1.4s-2.6-.7-2.6-2.3h0ZM1597.2,189.9v-3.1c-3.9.4-5.3,1.3-5.3,2.8s.9,1.8,2,1.8,2.1-.5,3.3-1.5h0Z"/>
          <path class="cls-7" d="M1601.7,190.9h0v.9h-.6v-13h.6v5.6c.9-.8,2-1.4,3.2-1.4,2.4,0,3.6,1.7,3.6,4.4s-1.8,4.6-4,4.6-1.9-.4-2.7-1.1h0ZM1607.9,187.3c0-2.2-.8-3.9-3.1-3.9s-2,.5-3.1,1.5v5.3c1.1.9,2.1,1.2,2.8,1.2,2,0,3.4-1.7,3.4-4.1h0Z"/>
          <path class="cls-7" d="M1610.4,187.4c0-2.9,1.8-4.5,4-4.5s4,1.7,4,4.5-1.8,4.5-4,4.5-4-1.7-4-4.5ZM1617.8,187.4c0-2.4-1.5-4-3.4-4s-3.4,1.7-3.4,4,1.5,4,3.4,4,3.4-1.6,3.4-4Z"/>
          <path class="cls-7" d="M1621.8,190.9h0v.9h-.6v-13h.6v5.6c.9-.8,2-1.4,3.2-1.4,2.4,0,3.6,1.7,3.6,4.4s-1.8,4.6-4,4.6-1.9-.4-2.7-1.1h0ZM1628,187.3c0-2.2-.8-3.9-3.1-3.9s-2,.5-3.1,1.5v5.3c1.1.9,2.1,1.2,2.8,1.2,2,0,3.4-1.7,3.4-4.1h0Z"/>
        </g>
        <rect class="cls-1" x="1383" y="27.5" width="67.9" height="1056"/>
        <polygon class="cls-3" points="1425.8 107.7 1399.7 103.1 1390.8 79.1 1408 59.7 1434.2 64.4 1443.1 88.4 1425.8 107.7"/>
        <polygon class="cls-3" points="1425.8 178.4 1399.7 173.8 1390.8 149.8 1408 130.4 1434.2 135 1443.1 159 1425.8 178.4"/>
        <polygon class="cls-3" points="1425.8 249.1 1399.7 244.4 1390.8 220.4 1408 201.1 1434.2 205.7 1443.1 229.7 1425.8 249.1"/>
        <polygon class="cls-3" points="1425.8 319.7 1399.7 315.1 1390.8 291.1 1408 271.7 1434.2 276.4 1443.1 300.4 1425.8 319.7"/>
        <polygon class="cls-3" points="1425.8 394.5 1399.7 389.9 1390.8 365.9 1408 346.5 1434.2 351.1 1443.1 375.1 1425.8 394.5"/>
        <polygon class="cls-3" points="1425.8 465.2 1399.7 460.5 1390.8 436.5 1408 417.2 1434.2 421.8 1443.1 445.8 1425.8 465.2"/>
        <polygon class="cls-3" points="1425.8 531.7 1399.7 527.1 1390.8 503.1 1408 483.7 1434.2 488.3 1443.1 512.3 1425.8 531.7"/>
        <polygon class="cls-3" points="1425.8 602.4 1399.7 597.8 1390.8 573.8 1408 554.4 1434.2 559 1443.1 583 1425.8 602.4"/>
        <polygon class="cls-3" points="1425.8 673 1399.7 668.4 1390.8 644.4 1408 625 1434.2 629.7 1443.1 653.7 1425.8 673"/>
        <polygon class="cls-3" points="1425.8 743.7 1399.7 739.1 1390.8 715.1 1408 695.7 1434.2 700.3 1443.1 724.3 1425.8 743.7"/>
        <polygon class="cls-3" points="1425.8 818.5 1399.7 813.9 1390.8 789.9 1408 770.5 1434.2 775.1 1443.1 799.1 1425.8 818.5"/>
        <polygon class="cls-3" points="1425.8 889.2 1399.7 884.5 1390.8 860.5 1408 841.2 1434.2 845.8 1443.1 869.8 1425.8 889.2"/>
        <g>
          <path class="cls-7" d="M1362.6,227.9v5.1h-.7v-11h.7v5.1h15.8v.8h-15.8Z"/>
          <path class="cls-7" d="M1372.5,221.4c-4,0-6.3-2.4-6.3-5.1s2.3-5.1,6.3-5.1,6.3,2.4,6.3,5.1-2.3,5.1-6.3,5.1ZM1372.5,212c-3.3,0-5.6,1.9-5.6,4.3s2.3,4.3,5.6,4.3,5.6-1.9,5.6-4.3-2.3-4.3-5.6-4.3Z"/>
          <path class="cls-7" d="M1372.5,208.6c-4,0-6.3-2.4-6.3-5.1s2.3-5.1,6.3-5.1,6.3,2.4,6.3,5.1-2.3,5.1-6.3,5.1ZM1372.5,199.2c-3.3,0-5.6,1.9-5.6,4.3s2.3,4.3,5.6,4.3,5.6-1.9,5.6-4.3-2.3-4.3-5.6-4.3Z"/>
          <path class="cls-7" d="M1377.1,194.8h-16.8v-.7h17c.5,0,.8-.2.8-.5s0-.2,0-.4h.6c0,0,.1.2.1.5,0,.7-.4,1.1-1.6,1.1h0Z"/>
          <path class="cls-7" d="M1377.1,190.8l-.6-.5c.9-1,1.6-2,1.6-3.7s-1.2-2.9-2.6-2.9-2.3,1.5-2.8,2.9c-.6,1.8-1.4,3.8-3.4,3.8s-3.1-1.2-3.1-3.6.5-2.4,1.2-3.2l.6.4c-.6.8-1.1,1.6-1.1,2.8,0,1.9,1.2,2.8,2.4,2.8s2-1.4,2.6-2.8c.7-1.8,1.3-3.8,3.7-3.8s3.3,1.3,3.3,3.7-.8,3.2-1.7,4.2h0Z"/>
          <path class="cls-7" d="M1368,180.4c-.6,0-1-.4-1-.9s.4-.9,1-.9,1,.4,1,.9-.4.9-1,.9ZM1377.8,180.4c-.6,0-1-.4-1-.9s.4-.9,1-.9,1,.4,1,.9-.4.9-1,.9Z"/>
        </g>
      </g>
    </g>
  </g>
</svg>